<svg xmlns="http://www.w3.org/2000/svg" xmlns:xlink="http://www.w3.org/1999/xlink" width="63.578" height="63.578" viewBox="0 0 63.578 63.578"><defs><style>.a{fill:url(#a);}.b{fill:#fff;}</style><radialGradient id="a" cx="0.508" cy="1.225" r="1.347" gradientUnits="objectBoundingBox"><stop offset="0" stop-color="#3b5998"/><stop offset="0.301" stop-color="#3b5998"/><stop offset="1" stop-color="#5f83cf"/></radialGradient></defs><path class="a" d="M85.078,72.024A13.052,13.052,0,0,1,72.024,85.078H34.555A13.052,13.052,0,0,1,21.5,72.024V34.555A13.052,13.052,0,0,1,34.555,21.5H72.01A13.052,13.052,0,0,1,85.065,34.555V72.024Z" transform="translate(-21.5 -21.5)"/><path class="b" d="M234.886,91.615h5.87V82.4h-8.784a11.889,11.889,0,0,0-9.042,4.446s-2.4,2.264-2.44,8.879h0v6.914H211.8v9.788h8.69v25.282h10.018V112.424h8.622l1.206-9.788h-9.815V95.723h0A3.981,3.981,0,0,1,234.886,91.615Z" transform="translate(-186.003 -74.142)"/></svg>