<?xml version="1.0" encoding="utf-8"?>
<!-- Generator: Adobe Illustrator 24.0.1, SVG Export Plug-In . SVG Version: 6.00 Build 0)  -->
<svg version="1.1" id="Layer_1" xmlns="http://www.w3.org/2000/svg" xmlns:xlink="http://www.w3.org/1999/xlink" x="0px" y="0px"
	 viewBox="0 0 24 26" style="enable-background:new 0 0 24 26;" xml:space="preserve">
<style type="text/css">
	.st0{fill:#0073B5;}
</style>
<path class="st0" d="M12,1C5.4,1,0,6.4,0,13s5.4,12,12,12s12-5.4,12-12S18.6,1,12,1z M8.5,19.2h-3v-8.8h2.9v8.8H8.5z M7,9.2L7,9.2
	c-1,0-1.6-0.7-1.6-1.5C5.4,6.8,6,6.1,7,6.1s1.6,0.7,1.6,1.5C8.7,8.5,8,9.2,7,9.2z M19,19.2h-2.9v-4.7c0-1.2-0.4-2-1.5-2
	c-0.8,0-1.3,0.5-1.5,1.1C13,13.7,13,14,13,14.3v4.9h-2.9c0,0,0-8,0-8.8H13v1.2c0.4-0.6,1.1-1.5,2.6-1.5c1.9,0,3.4,1.3,3.4,4V19.2z"
	/>
</svg>
