<svg xmlns="http://www.w3.org/2000/svg" width="61.549" height="61.549" viewBox="0 0 61.549 61.549"><defs><style>.a{fill:#1da1f2;}.b{fill:#fff;}</style></defs><g transform="translate(0)"><path class="a" d="M73.049,63.712A12.648,12.648,0,0,1,60.4,76.349H24.15A12.648,12.648,0,0,1,11.5,63.712V27.45A12.65,12.65,0,0,1,24.15,14.8H60.4a12.65,12.65,0,0,1,12.65,12.65Z" transform="translate(-11.5 -14.8)"/><path class="b" d="M104.093,159.127c16.174,0,25.022-13.4,25.022-25.022,0-.378,0-.755-.025-1.133a17.734,17.734,0,0,0,4.38-4.556,17.435,17.435,0,0,1-5.047,1.385,8.835,8.835,0,0,0,3.864-4.858,17.882,17.882,0,0,1-5.589,2.14,8.789,8.789,0,0,0-15.2,6,8.9,8.9,0,0,0,.227,2.014A24.968,24.968,0,0,1,93.6,125.911a8.794,8.794,0,0,0,2.719,11.743,8.718,8.718,0,0,1-3.99-1.108v.113a8.794,8.794,0,0,0,7.049,8.622,8.721,8.721,0,0,1-2.316.315,8.826,8.826,0,0,1-1.649-.164,8.786,8.786,0,0,0,8.219,6.1A17.663,17.663,0,0,1,92.7,155.3a16.677,16.677,0,0,1-2.1-.126,24.971,24.971,0,0,0,13.493,3.952" transform="translate(-80.644 -110.518)"/></g></svg>